<svg xmlns="http://www.w3.org/2000/svg" viewBox="0 0 1200 500" role="img" aria-label="Login illustration">
  <defs>
    <linearGradient id="bg" x1="0" y1="0" x2="1" y2="1">
      <stop offset="0%" stop-color="#0f172a" />
      <stop offset="50%" stop-color="#1d4ed8" />
      <stop offset="100%" stop-color="#38bdf8" />
    </linearGradient>
    <linearGradient id="card" x1="0" y1="0" x2="0" y2="1">
      <stop offset="0%" stop-color="#ffffff" stop-opacity="0.95" />
      <stop offset="100%" stop-color="#e2e8f0" stop-opacity="0.85" />
    </linearGradient>
  </defs>
  <rect width="1200" height="500" fill="url(#bg)" />
  <g opacity="0.18">
    <circle cx="160" cy="120" r="80" fill="#60a5fa" />
    <circle cx="1080" cy="420" r="120" fill="#22d3ee" />
  </g>
  <g>
    <rect x="120" y="90" width="420" height="320" rx="26" fill="url(#card)" />
    <rect x="160" y="130" width="190" height="18" rx="9" fill="#0f172a" opacity="0.8" />
    <rect x="160" y="170" width="300" height="12" rx="6" fill="#1e3a8a" opacity="0.6" />
    <rect x="160" y="200" width="240" height="12" rx="6" fill="#1e3a8a" opacity="0.4" />
    <rect x="160" y="250" width="130" height="56" rx="14" fill="#38bdf8" />
    <rect x="310" y="250" width="130" height="56" rx="14" fill="#0ea5e9" />
    <rect x="160" y="330" width="280" height="14" rx="7" fill="#1e293b" opacity="0.45" />
  </g>
  <g>
    <rect x="660" y="120" width="420" height="260" rx="28" fill="url(#card)" />
    <rect x="700" y="160" width="160" height="18" rx="9" fill="#0f172a" opacity="0.8" />
    <rect x="700" y="210" width="300" height="14" rx="7" fill="#1e3a8a" opacity="0.5" />
    <rect x="700" y="240" width="260" height="14" rx="7" fill="#1e3a8a" opacity="0.4" />
    <rect x="700" y="280" width="180" height="48" rx="12" fill="#e0f2fe" />
  </g>
</svg>
