<svg xmlns="http://www.w3.org/2000/svg" viewBox="0 0 1200 500" role="img" aria-label="Signup illustration">
  <defs>
    <linearGradient id="bg" x1="0" y1="0" x2="1" y2="1">
      <stop offset="0%" stop-color="#0b1324" />
      <stop offset="55%" stop-color="#2563eb" />
      <stop offset="100%" stop-color="#22c55e" />
    </linearGradient>
    <linearGradient id="card" x1="0" y1="0" x2="0" y2="1">
      <stop offset="0%" stop-color="#ffffff" stop-opacity="0.95" />
      <stop offset="100%" stop-color="#e2e8f0" stop-opacity="0.85" />
    </linearGradient>
  </defs>
  <rect width="1200" height="500" fill="url(#bg)" />
  <g opacity="0.16">
    <circle cx="190" cy="390" r="120" fill="#86efac" />
    <circle cx="1000" cy="120" r="90" fill="#60a5fa" />
  </g>
  <g>
    <rect x="140" y="90" width="380" height="320" rx="26" fill="url(#card)" />
    <rect x="180" y="130" width="200" height="18" rx="9" fill="#0f172a" opacity="0.8" />
    <rect x="180" y="170" width="280" height="12" rx="6" fill="#1e3a8a" opacity="0.6" />
    <rect x="180" y="200" width="230" height="12" rx="6" fill="#1e3a8a" opacity="0.4" />
    <rect x="180" y="250" width="150" height="56" rx="14" fill="#22c55e" />
    <rect x="350" y="250" width="130" height="56" rx="14" fill="#38bdf8" />
    <rect x="180" y="330" width="260" height="14" rx="7" fill="#1e293b" opacity="0.45" />
  </g>
  <g>
    <rect x="640" y="120" width="430" height="260" rx="28" fill="url(#card)" />
    <rect x="680" y="160" width="200" height="18" rx="9" fill="#0f172a" opacity="0.8" />
    <rect x="680" y="210" width="320" height="14" rx="7" fill="#1e3a8a" opacity="0.5" />
    <rect x="680" y="240" width="260" height="14" rx="7" fill="#1e3a8a" opacity="0.4" />
    <rect x="680" y="280" width="200" height="48" rx="12" fill="#dcfce7" />
  </g>
</svg>
